<svg width="21" height="25" viewBox="0 0 21 25" fill="none" xmlns="http://www.w3.org/2000/svg"><path d="M8.12305 20H12.3701" stroke="#19162E" stroke-width="1.4" stroke-linecap="round" stroke-linejoin="round"/><path d="M13.595 14.0276L14.1515 14.4522L13.595 14.0276ZM6.89898 14.0276L6.34248 14.4522H6.34248L6.89898 14.0276ZM8.12351 16.792H8.82351H8.12351ZM6.7 11.3506C6.7 9.31842 8.30385 7.7 10.247 7.7V6.3C7.49905 6.3 5.3 8.57721 5.3 11.3506H6.7ZM10.247 7.7C12.1902 7.7 13.794 9.31842 13.794 11.3506H15.194C15.194 8.57721 12.995 6.3 10.247 6.3V7.7ZM13.794 11.3506C13.794 12.2028 13.5111 12.9836 13.0386 13.603L14.1515 14.4522C14.8055 13.5952 15.194 12.5175 15.194 11.3506H13.794ZM7.45547 13.603C6.98289 12.9836 6.7 12.2028 6.7 11.3506H5.3C5.3 12.5175 5.68849 13.5952 6.34248 14.4522L7.45547 13.603ZM11.6627 17.1766H8.83134V18.5766H11.6627V17.1766ZM8.83134 17.1766C8.83106 17.1766 8.83147 17.1766 8.8323 17.1767C8.83309 17.1769 8.83373 17.1771 8.83412 17.1773C8.83482 17.1776 8.83373 17.1773 8.83173 17.1752C8.82972 17.1732 8.82766 17.1702 8.82615 17.1666C8.82481 17.1633 8.82351 17.1586 8.82351 17.1515H7.42351C7.42351 17.9225 8.03801 18.5766 8.83134 18.5766V17.1766ZM11.6705 17.1515C11.6705 17.1586 11.6692 17.1633 11.6679 17.1666C11.6664 17.1702 11.6643 17.1732 11.6623 17.1752C11.6603 17.1773 11.6592 17.1776 11.6599 17.1773C11.6603 17.1771 11.6609 17.1769 11.6617 17.1767C11.6626 17.1766 11.663 17.1766 11.6627 17.1766V18.5766C12.456 18.5766 13.0705 17.9225 13.0705 17.1515H11.6705ZM8.82351 17.1515V16.792H7.42351V17.1515H8.82351ZM11.6705 16.792V17.1515H13.0705V16.792H11.6705ZM6.34248 14.4522C6.96842 15.2725 7.42351 16.0163 7.42351 16.792L8.82351 16.792C8.82351 15.4971 8.0744 14.4141 7.45547 13.603L6.34248 14.4522ZM13.0386 13.603C12.4196 14.4141 11.6705 15.4971 11.6705 16.792H13.0705C13.0705 16.0163 13.5256 15.2725 14.1515 14.4522L13.0386 13.603Z" fill="#19162E"/><path d="M20 8.83784C19.9898 8.09083 19.6355 7.38935 19.038 6.93303L12.4577 1.6853C11.3049 0.771566 9.6662 0.771566 8.51342 1.6853L1.96203 6.94256C1.36226 7.39702 1.00739 8.09967 1 8.84736" stroke="#130F26" stroke-width="1.5" stroke-linecap="round" stroke-linejoin="round"/><path d="M1 23.5H20" stroke="#130F26" stroke-width="1.5" stroke-linecap="round" stroke-linejoin="round"/></svg>