<svg width="32" height="20" viewBox="0 0 32 20" fill="none" xmlns="http://www.w3.org/2000/svg">
<path d="M3.44763 16.5178C2.84057 16.0097 1.82808 16.1144 1.35474 15.593C1.29955 15.5328 1.25286 15.466 1.2104 15.3924C1.07031 15.1451 1.03211 14.8487 1.06607 14.5657C1.08942 14.3585 1.11064 14.1802 1.12338 14.0599C1.342 12.2126 1.48422 10.7909 1.90025 7.94536C1.94058 7.25457 2.28869 5.64348 1.94907 5.01732C1.92785 4.97721 1.81959 5.25576 1.77926 5.44294C1.06819 8.6651 0.388955 12.0945 0.153346 14.1468C0.0366028 14.9535 -0.109858 16.0075 0.125751 16.3283C1.04908 17.5695 3.6047 16.6492 3.44763 16.5178Z" fill="#E01E1E"/>
<path d="M6.74072 16.9416H14.7178C14.8002 16.9416 14.8657 16.8676 14.8552 16.7827C14.7706 16.0793 14.7498 12.9164 14.6457 11.2354C14.61 10.6582 14.1773 10.552 13.7858 10.9776C13.1318 11.6887 12.1595 12.7236 11.3871 13.4918C11.0214 13.8555 10.4414 13.8555 10.0756 13.4918C9.30274 12.7235 8.33055 11.6893 7.67673 10.9784C7.28514 10.5526 6.85195 10.6582 6.81611 11.2356C6.71174 12.9167 6.69218 16.0793 6.60757 16.7827C6.59277 16.8676 6.65829 16.9416 6.74072 16.9416Z" fill="#E01E1E"/>
<path d="M17.9283 1.00274C18.0472 0.993827 3.58584 1.00274 3.58584 1.00274C3.58584 1.00274 3.57735 1.01389 3.57311 1.02057C3.5349 1.07851 3.58372 1.14981 3.58796 1.14981C3.81933 1.17655 4.38394 1.48406 5.11412 1.9587C5.51317 2.21718 5.96316 2.52692 6.43438 2.87232C7.61461 3.72547 8.93412 4.77967 9.97271 5.74456C10.3885 6.13082 11.0429 6.13082 11.4586 5.74456C12.4972 4.77967 13.8167 3.72547 14.997 2.87232C15.4682 2.52692 15.9182 2.21718 16.3172 1.9587C16.9853 1.5252 17.5127 1.23106 17.7755 1.16223C17.8445 1.14415 17.9273 1.07407 17.9283 1.00274V1.00274Z" fill="#FFC700"/>
<path d="M23.1853 4.93086C23.1322 5.62833 23.0961 6.32803 23.0515 7.02773C23.0261 7.64943 23.0027 8.26891 22.9751 8.89062C22.9454 9.597 23.181 9.90005 23.8412 9.9513C24.6032 10.0092 25.3673 10.0694 26.1314 10.085C27.9696 10.1251 28.9927 9.32068 29.4215 7.53133C29.5234 5.76203 28.8463 4.77711 27.2118 4.36041C26.1866 4.0997 25.1274 4.16877 24.0831 4.08187C23.4888 4.03285 23.232 4.28465 23.1853 4.93086Z" fill="#2496FF"/>
<path d="M31.8187 7.50508C31.7868 7.48056 31.668 7.42485 31.6361 7.39811C31.6319 7.60758 31.6191 7.82372 31.5958 8.0421C31.4557 9.73563 30.6703 10.9924 29.2567 11.8058C28.0999 12.472 26.8454 12.6191 25.5527 12.5121C24.9244 12.4609 24.2919 12.4252 23.6679 12.3361C23.324 12.2871 23.1669 12.423 23.0353 12.7283C22.6532 13.6085 21.8233 16.1978 21.7766 16.2758C21.7023 16.405 21.6386 16.5833 21.4667 16.5566C21.2948 16.5298 21.2672 16.3493 21.246 16.1956C21.1377 15.4201 19.7325 4.118 19.55 2.66067C19.4884 2.16153 19.7877 1.80054 20.259 1.727C20.346 1.71363 23.1139 1.68244 25.3405 2.06794L25.1218 1.81168L19.7771 1.01394C19.2125 0.929263 18.7307 1.43509 18.8092 2.02783L20.7365 16.2691C20.8002 16.7393 21.2014 17.0758 21.6514 17.0357C21.6514 17.0357 21.9337 17.0111 22.4028 16.9376C26.1556 19.7253 27.9279 18.9342 27.6095 18.7804C25.6589 17.8312 25.3532 16.8641 25.1558 16.2869C28.0553 15.3622 31.738 13.3544 31.9906 9.08719C32.0458 8.18026 31.8187 7.50508 31.8187 7.50508Z" fill="#2496FF"/>
</svg>
