<svg width="18" height="18" viewBox="0 0 18 18" fill="none" xmlns="http://www.w3.org/2000/svg"><path d="M9 18.0001C6.5 18.0001 4.375 17.1251 2.625 15.3751C0.875 13.6251 0 11.5001 0 9.00011C0 6.75011 0.6625 4.84178 1.9875 3.27511C3.3125 1.70844 5.05 0.700111 7.2 0.250111C7.88333 0.116777 8.35 0.233444 8.6 0.600111C8.85 0.966777 8.84167 1.46678 8.575 2.10011C8.425 2.48344 8.30833 2.87511 8.225 3.27511C8.14167 3.67511 8.1 4.08344 8.1 4.50011C8.1 6.00011 8.625 7.27511 9.675 8.32511C10.725 9.37511 12 9.90011 13.5 9.90011C13.9167 9.90011 14.3208 9.86261 14.7125 9.78761C15.1042 9.71261 15.4833 9.60844 15.85 9.47511C16.5667 9.20844 17.1 9.22094 17.45 9.51261C17.8 9.80428 17.8917 10.3001 17.725 11.0001C17.275 13.0168 16.2667 14.6876 14.7 16.0126C13.1333 17.3376 11.2333 18.0001 9 18.0001ZM9 16.5001C10.8167 16.5001 12.4 15.9376 13.75 14.8126C15.1 13.6876 15.9417 12.3668 16.275 10.8501C15.8583 11.0334 15.4125 11.1709 14.9375 11.2626C14.4625 11.3543 13.9833 11.4001 13.5 11.4001C11.5833 11.4001 9.95417 10.7293 8.6125 9.38761C7.27083 8.04594 6.6 6.41678 6.6 4.50011C6.6 4.10011 6.64167 3.67094 6.725 3.21261C6.80833 2.75428 6.95833 2.23344 7.175 1.65011C5.54167 2.10011 4.1875 3.01261 3.1125 4.38761C2.0375 5.76261 1.5 7.30011 1.5 9.00011C1.5 11.0834 2.22917 12.8543 3.6875 14.3126C5.14583 15.7709 6.91667 16.5001 9 16.5001Z" fill="#627384"/></svg>