<svg width="24" height="24" viewBox="0 0 24 24" fill="none" xmlns="http://www.w3.org/2000/svg"><path d="M14 15.25C13.5858 15.25 13.25 15.5858 13.25 16C13.25 16.4142 13.5858 16.75 14 16.75V15.25ZM19 16H19.75C19.75 15.5858 19.4142 15.25 19 15.25V16ZM18.25 21C18.25 21.4142 18.5858 21.75 19 21.75C19.4142 21.75 19.75 21.4142 19.75 21H18.25ZM14 16.75H19V15.25H14V16.75ZM18.25 16V21H19.75V16H18.25Z" fill="#130F26"/><path d="M4.58252 14.9968C5.1432 16.3846 6.08195 17.5872 7.29206 18.468C8.50217 19.3488 9.93511 19.8725 11.428 19.9795C12.9209 20.0865 14.4139 19.7726 15.7373 19.0734C17.0606 18.3742 18.1613 17.3177 18.9142 16.0241" stroke="#130F26" stroke-width="1.5" stroke-linecap="round" stroke-linejoin="round"/><path d="M10 8.75C10.4142 8.75 10.75 8.41421 10.75 8C10.75 7.58579 10.4142 7.25 10 7.25V8.75ZM5 8H4.25C4.25 8.41421 4.58579 8.75 5 8.75V8ZM5.75 3C5.75 2.58579 5.41421 2.25 5 2.25C4.58579 2.25 4.25 2.58579 4.25 3H5.75ZM10 7.25H5V8.75H10V7.25ZM5.75 8V3H4.25V8H5.75Z" fill="#130F26"/><path d="M19.4176 9.00315C18.8569 7.61541 17.9182 6.41278 16.7081 5.53197C15.498 4.65116 14.065 4.12749 12.5721 4.02048C11.0792 3.91346 9.58624 4.2274 8.26287 4.92661C6.9395 5.62582 5.83882 6.68226 5.08594 7.97584" stroke="#130F26" stroke-width="1.5" stroke-linecap="round" stroke-linejoin="round"/></svg>