<svg width="24" height="24" viewBox="0 0 24 24" fill="none" xmlns="http://www.w3.org/2000/svg"><path fill-rule="evenodd" clip-rule="evenodd" d="M3 6.5C3 3.87479 3.02811 3 6.5 3C9.97189 3 10 3.87479 10 6.5C10 9.12521 10.0111 10 6.5 10C2.98893 10 3 9.12521 3 6.5Z" stroke="#130F26" stroke-width="1.5" stroke-linecap="round" stroke-linejoin="round"/><path fill-rule="evenodd" clip-rule="evenodd" d="M14 6.5C14 3.87479 14.0281 3 17.5 3C20.9719 3 21 3.87479 21 6.5C21 9.12521 21.0111 10 17.5 10C13.9889 10 14 9.12521 14 6.5Z" stroke="#130F26" stroke-width="1.5" stroke-linecap="round" stroke-linejoin="round"/><path fill-rule="evenodd" clip-rule="evenodd" d="M3 17.5C3 14.8748 3.02811 14 6.5 14C9.97189 14 10 14.8748 10 17.5C10 20.1252 10.0111 21 6.5 21C2.98893 21 3 20.1252 3 17.5Z" stroke="#130F26" stroke-width="1.5" stroke-linecap="round" stroke-linejoin="round"/><path fill-rule="evenodd" clip-rule="evenodd" d="M15.0252 19.9749C13.1689 18.1186 12.5702 17.4801 15.0252 15.0251C17.4802 12.5701 18.1186 13.1688 19.9749 15.0251C21.8312 16.8814 22.4576 17.4922 19.9749 19.9749C17.4922 22.4576 16.8815 21.8312 15.0252 19.9749Z" stroke="#130F26" stroke-width="1.5" stroke-linecap="round" stroke-linejoin="round"/></svg>